<mxfile host="app.diagrams.net" agent="Mozilla/5.0 (Macintosh; Intel Mac OS X 10_15_7) AppleWebKit/537.36 (KHTML, like Gecko) Chrome/137.0.0.0 Safari/537.36" version="27.2.0">
  <diagram name="ページ1" id="3pbKmpvZ73yMG6oYIp0Q">
    <mxGraphModel dx="1215" dy="664" grid="1" gridSize="10" guides="1" tooltips="1" connect="1" arrows="1" fold="1" page="1" pageScale="1" pageWidth="827" pageHeight="1169" math="0" shadow="0">
      <root>
        <mxCell id="0" />
        <mxCell id="1" parent="0" />
        <mxCell id="4kiQ1wV_1m0TdjM0FVag-2" value="" style="shape=image;verticalLabelPosition=bottom;labelBackgroundColor=default;verticalAlign=top;aspect=fixed;imageAspect=0;image=https://blogger.googleusercontent.com/img/b/R29vZ2xl/AVvXsEhgk-H5O8CAzlEmPYFTucQjLhXTlyLZrNS4duCwq1288x1liWg-lckZ-X_DgA-BvwTWlcdITak8RuNKh3yTxMNmtE3HJjmtjH-D0BCZOoSq9N5WE37og-9iYa2_GplaqRNmQCcL1duSc7Q/s170/boy_05.png;strokeColor=#E6E6E6;" vertex="1" parent="1">
          <mxGeometry x="440" y="400" width="40" height="40" as="geometry" />
        </mxCell>
        <mxCell id="4kiQ1wV_1m0TdjM0FVag-5" value="" style="shape=image;verticalLabelPosition=bottom;labelBackgroundColor=default;verticalAlign=top;aspect=fixed;imageAspect=0;image=https://blogger.googleusercontent.com/img/b/R29vZ2xl/AVvXsEj_rl6I3Ti2L63YE9Os9s4vjg01eQnoJNmdBGOqXQ1sGFY5lufnx8VmgG052ryndyR0Q6RTpnTIfyyoYmoXYV2C7k6P6f_Fy9FuqINBWlAJHCD5PapIu2vzEFomPUxdrI88nB_tgyMEO9Y/s170/boy_12.png;strokeColor=#E6E6E6;" vertex="1" parent="1">
          <mxGeometry x="280" y="430" width="40" height="40" as="geometry" />
        </mxCell>
        <mxCell id="4kiQ1wV_1m0TdjM0FVag-6" value="" style="shape=image;verticalLabelPosition=bottom;labelBackgroundColor=default;verticalAlign=top;aspect=fixed;imageAspect=0;image=https://blogger.googleusercontent.com/img/b/R29vZ2xl/AVvXsEhBfolqi8tlqY4yVXJbvVGCJwT0c7ADx9Mv8VCS7kcQDHplaYitvwd3NSDD3lLLky5Et_mBTDiWGKEYvIW9y28CpDjIzwcd0f6O2ss0MZkY7PO8bX7VHiaFy2Zxv4O7QsWIVhwQILyWQYo/s170/youngwoman_37.png;strokeColor=#E6E6E6;" vertex="1" parent="1">
          <mxGeometry x="450" y="320" width="40" height="40" as="geometry" />
        </mxCell>
        <mxCell id="4kiQ1wV_1m0TdjM0FVag-7" value="" style="shape=image;verticalLabelPosition=bottom;labelBackgroundColor=default;verticalAlign=top;aspect=fixed;imageAspect=0;image=https://blogger.googleusercontent.com/img/b/R29vZ2xl/AVvXsEj9lQ7mExKfjpIo8ebmBE2WXKD7xRUYUJmQKjTPESgRwsIGNq6lcwMOqxvdCJU6SYZQeL3N34VB59VRXlD0zoWCEiBD5OlmcRTVEgZQpShPQ8F77XS8HdTqiTjwZFR8Qi6YUQ5nHByaHBk/s170/youngwoman_40.png;strokeColor=#E6E6E6;" vertex="1" parent="1">
          <mxGeometry x="380" y="470" width="40" height="40" as="geometry" />
        </mxCell>
        <mxCell id="4kiQ1wV_1m0TdjM0FVag-8" value="" style="shape=image;verticalLabelPosition=bottom;labelBackgroundColor=default;verticalAlign=top;aspect=fixed;imageAspect=0;image=https://blogger.googleusercontent.com/img/b/R29vZ2xl/AVvXsEjjYwC_9IhHNzQRy7RnbnqVCU-KsArK679Tdvv1MTTThA0gzwrXnnPJzbirhB2kD1mYg_DG0xeHPbAa9tdZU927IZhtYJfrgEJpM7ZnvxYEkBFFy-32BtNcR9b0LwZyCMb2DCJoFdQgPRo/s170/youngwoman_44.png;strokeColor=#E6E6E6;" vertex="1" parent="1">
          <mxGeometry x="360" y="310" width="40" height="40" as="geometry" />
        </mxCell>
        <mxCell id="4kiQ1wV_1m0TdjM0FVag-9" value="" style="shape=image;verticalLabelPosition=bottom;labelBackgroundColor=default;verticalAlign=top;aspect=fixed;imageAspect=0;image=https://blogger.googleusercontent.com/img/b/R29vZ2xl/AVvXsEhGThjRzey4S3-Frz-vvT_gjl1bSXlUE_lxTVls4f9TAVbbMUzZDcZHsNzTMDlk9D2OJ4x2l45WUlo-Ps8y-pJ-Fy3WAgC9kR_yiJIGa91cmJ-aI7whbf1U7k5BznXvSTU9CisbP0EujYM/s140/icon_business_man05.png;strokeColor=#E6E6E6;" vertex="1" parent="1">
          <mxGeometry x="250" y="340" width="40" height="40" as="geometry" />
        </mxCell>
        <mxCell id="4kiQ1wV_1m0TdjM0FVag-10" value="" style="shape=image;verticalLabelPosition=bottom;labelBackgroundColor=default;verticalAlign=top;aspect=fixed;imageAspect=0;image=https://blogger.googleusercontent.com/img/b/R29vZ2xl/AVvXsEjIyTJCYQ9cyUWwUuDQQunslAo2cV7Il-CDxJgRtlzP5kg4WFCr-hPs32lY-bJRhQslVCG8EGCpcsrf9pTUEsQ07C_8Xe4-8GRZZpkXfS508-y4ttuEjk99G3o-jXIkaDhxlpVJpplWfE8/s140/icon_business_man14.png;strokeColor=#E6E6E6;" vertex="1" parent="1">
          <mxGeometry x="530" y="370" width="40" height="40" as="geometry" />
        </mxCell>
        <mxCell id="4kiQ1wV_1m0TdjM0FVag-11" value="" style="shape=image;verticalLabelPosition=bottom;labelBackgroundColor=default;verticalAlign=top;aspect=fixed;imageAspect=0;image=https://blogger.googleusercontent.com/img/b/R29vZ2xl/AVvXsEieb4aP0qvt-O3bcNvmJsfGnifkfNVrvuZ-bKPUhzF4B9N4fmi1jZZXmt1KCxdl4_MJ0JxNglllhpfUAV4u9myNmSSpq2FkW2zoDWGcWcMMMQS_m7UJI0f3KrPSPN_oqagHuFufsTnZvWM/s140/icon_business_man12.png;strokeColor=#E6E6E6;" vertex="1" parent="1">
          <mxGeometry x="350" y="380" width="40" height="40" as="geometry" />
        </mxCell>
      </root>
    </mxGraphModel>
  </diagram>
</mxfile>
